<?xml version="1.0" standalone="no"?>
<!DOCTYPE svg PUBLIC "-//W3C//DTD SVG 20010904//EN"
 "http://www.w3.org/TR/2001/REC-SVG-20010904/DTD/svg10.dtd">
<svg version="1.0" xmlns="http://www.w3.org/2000/svg"
 width="571.000000pt" height="571.000000pt" viewBox="0 0 571.000000 571.000000"
 preserveAspectRatio="xMidYMid meet">
<metadata>
Created by potrace 1.14, written by Peter Selinger 2001-2017
</metadata>
<g transform="translate(0.000000,571.000000) scale(0.100000,-0.100000)"
fill="#000000" stroke="none">
<path d="M0 2855 l0 -2835 2855 0 2855 0 0 2835 0 2835 -2855 0 -2855 0 0
-2835z m3415 2295 c3 -5 1 -10 -4 -10 -6 0 -11 5 -11 10 0 6 2 10 4 10 3 0 8
-4 11 -10z m-245 -41 c0 -5 -4 -9 -10 -9 -5 0 -10 7 -10 16 0 8 5 12 10 9 6
-3 10 -10 10 -16z m40 -39 c0 -5 -2 -10 -4 -10 -3 0 -8 5 -11 10 -3 6 -1 10 4
10 6 0 11 -4 11 -10z m1470 -20 c0 -5 -5 -10 -11 -10 -5 0 -7 5 -4 10 3 6 8
10 11 10 2 0 4 -4 4 -10z m-1212 -113 c15 -18 -1 -39 -23 -31 -18 7 -18 8 1
15 17 7 17 8 1 8 -10 1 -15 6 -12 11 8 14 20 13 33 -3z m189 -23 c-3 -3 -12
-4 -19 -1 -8 3 -5 6 6 6 11 1 17 -2 13 -5z m-217 -51 c0 -20 -3 -24 -11 -16
-7 7 -9 19 -6 27 10 24 17 19 17 -11z m-46 -28 c-4 -8 -8 -15 -10 -15 -2 0 -4
7 -4 15 0 8 4 15 10 15 5 0 7 -7 4 -15z m106 -30 c0 -28 -21 -33 -40 -10 -15
18 -5 35 21 35 14 0 19 -7 19 -25z m-365 -15 c-4 -12 -9 -19 -12 -17 -3 3 -2
15 2 27 4 12 9 19 12 17 3 -3 2 -15 -2 -27z m205 -10 c0 -5 -2 -10 -4 -10 -3
0 -8 5 -11 10 -3 6 -1 10 4 10 6 0 11 -4 11 -10z m325 -100 c3 -5 2 -10 -4
-10 -5 0 -13 5 -16 10 -3 6 -2 10 4 10 5 0 13 -4 16 -10z m-1185 -25 c65 -10
162 -59 214 -110 45 -43 46 -46 46 -107 0 -83 -22 -126 -80 -157 -49 -27 -74
-29 -340 -20 -132 4 -136 3 -192 -24 -137 -67 -208 -221 -195 -421 9 -153 50
-204 257 -320 67 -37 130 -75 140 -85 10 -9 26 -23 37 -31 11 -8 27 -32 37
-52 16 -35 16 -41 1 -70 -16 -34 -78 -80 -178 -132 -178 -92 -265 -307 -302
-741 -19 -223 -19 -496 0 -600 8 -44 28 -134 45 -200 57 -227 52 -284 -35
-371 -76 -77 -139 -98 -290 -99 -114 0 -123 2 -186 31 -112 53 -169 132 -176
244 -4 54 2 85 32 185 55 178 64 227 70 375 9 200 -20 920 -39 995 -21 79 -68
171 -118 231 -45 54 -68 101 -68 137 0 13 30 75 66 138 124 214 143 254 213
461 82 241 146 376 225 471 128 153 317 255 514 276 74 8 232 5 302 -4z m1844
-10 c69 -18 179 -92 201 -135 8 -16 15 -55 15 -88 0 -71 -25 -115 -84 -146
-43 -22 -81 -23 -336 -16 l-135 4 -62 -32 c-67 -34 -121 -92 -152 -163 -43
-96 -52 -290 -17 -372 23 -56 74 -105 163 -157 47 -28 87 -50 89 -50 12 0 122
-75 152 -104 36 -33 62 -76 62 -100 0 -29 -68 -91 -151 -138 -87 -49 -162
-111 -196 -163 -11 -16 -32 -61 -47 -98 -78 -198 -112 -465 -110 -887 l0 -195
47 -190 c26 -105 47 -213 47 -240 -1 -67 -27 -122 -85 -173 -63 -55 -139 -83
-246 -89 -142 -9 -250 27 -326 109 -82 90 -88 181 -24 393 54 182 62 255 55
530 -2 127 -7 313 -9 415 -2 102 -7 205 -11 230 -4 25 -8 63 -9 85 -1 22 -5
49 -8 60 -4 11 -10 36 -15 55 -13 52 -49 118 -101 185 -49 63 -71 104 -71 133
0 21 55 127 126 244 64 106 89 164 159 373 96 285 176 431 298 541 107 96 277
173 427 194 88 12 282 4 354 -15z m-834 -45 c0 -5 -7 -7 -15 -4 -8 4 -15 8
-15 10 0 2 7 4 15 4 8 0 15 -4 15 -10z m-270 -68 c0 -28 -33 -55 -48 -40 -17
17 -15 26 5 24 10 0 18 5 19 12 2 20 4 22 14 22 6 0 10 -8 10 -18z m-44 -94
c-7 -34 -7 -35 -15 -13 -5 12 -4 23 3 27 16 11 16 10 12 -14z m4 -108 c0 -5
-2 -10 -4 -10 -3 0 -8 5 -11 10 -3 6 -1 10 4 10 6 0 11 -4 11 -10z m9 -200 c6
0 11 -6 11 -14 0 -12 -6 -12 -29 -3 -21 8 -27 15 -23 30 5 18 6 18 17 3 7 -9
17 -16 24 -16z m-1004 -10 c3 -5 1 -10 -4 -10 -6 0 -11 5 -11 10 0 6 2 10 4
10 3 0 8 -4 11 -10z m989 -35 c-4 -8 -10 -12 -15 -9 -11 6 -2 24 11 24 5 0 7
-7 4 -15z m2226 -311 c0 -8 -5 -12 -10 -9 -6 4 -8 11 -5 16 9 14 15 11 15 -7z
m233 -96 c3 -9 3 -19 0 -22 -9 -9 -44 54 -37 65 6 11 26 -12 37 -43z m-1667
-28 c18 0 14 -48 -4 -55 -17 -6 -34 3 -27 15 3 4 -6 11 -20 14 -14 4 -25 14
-25 22 0 13 7 15 31 10 17 -3 38 -6 45 -6z m-3426 -15 c-7 -9 -15 -13 -19 -10
-3 3 1 10 9 15 21 14 24 12 10 -5z m5090 -21 c0 -8 -4 -14 -10 -14 -5 0 -10 9
-10 21 0 11 5 17 10 14 6 -3 10 -13 10 -21z m-1640 -50 c0 -2 -7 -4 -15 -4 -8
0 -15 4 -15 10 0 5 7 7 15 4 8 -4 15 -8 15 -10z m-1435 -33 c9 -16 -9 -20 -23
-5 -10 12 -10 14 2 14 8 0 17 -4 21 -9z m1415 -851 c0 -5 -4 -10 -9 -10 -6 0
-13 5 -16 10 -3 6 1 10 9 10 9 0 16 -4 16 -10z m685 -429 c3 -5 1 -12 -5 -16
-5 -3 -10 1 -10 9 0 18 6 21 15 7z m-2263 -123 c-9 -9 -15 -9 -24 0 -9 9 -7
12 12 12 19 0 21 -3 12 -12z m161 -35 c-7 -2 -19 -2 -25 0 -7 3 -2 5 12 5 14
0 19 -2 13 -5z m2749 -275 c-9 -9 -12 -7 -12 12 0 19 3 21 12 12 9 -9 9 -15 0
-24z m-152 -28 c-24 -15 -37 -11 -16 5 11 8 22 12 25 9 3 -3 -1 -9 -9 -14z"/>
</g>
</svg>
